<?xml version="1.0" encoding="UTF-8"?>
<svg xmlns="http://www.w3.org/2000/svg" viewBox="0 0 400 400" width="400" height="400">
  <defs>
    <radialGradient id="grad" cx="40%" cy="40%" r="60%">
      <stop offset="0%" style="stop-color:#F1948A;stop-opacity:1"/>
      <stop offset="100%" style="stop-color:#C2185B;stop-opacity:1"/>
    </radialGradient>
    
  </defs>
  
  <!-- Background -->
  <rect width="400" height="400" fill="#fafaf8" rx="20"/>
  
  <!-- Shadow -->
  <ellipse cx="200" cy="340" rx="80" ry="15" fill="#00000015"/>
  
  <!-- Fruit -->
  <path d="M200 310 C140 270 100 220 110 170 C120 130 160 120 200 155 
                    C240 120 280 130 290 170 C300 220 260 270 200 310Z" fill="url(#grad)" />
  
  <ellipse cx="165" cy="180" rx="25" ry="20" fill="white" opacity="0.2" />
  
  <!-- Stem -->
  <path d="M195 115 L195 100 Q195 85 200 80 Q205 85 205 100 L205 115" fill="#2E7D32"/>
              <path d="M180 120 Q190 105 200 115 Q210 105 220 120 Q210 125 200 118 Q190 125 180 120" fill="#388E3C"/>
  
  <!-- Label -->
  <text x="200" y="380" text-anchor="middle" font-family="Georgia, serif" font-size="16" fill="#555">Batanaya</text>
</svg>