<?xml version="1.0" encoding="UTF-8"?>
<svg xmlns="http://www.w3.org/2000/svg" viewBox="0 0 400 400" width="400" height="400">
  <defs>
    <radialGradient id="grad" cx="40%" cy="40%" r="60%">
      <stop offset="0%" style="stop-color:#E74C3C;stop-opacity:1"/>
      <stop offset="100%" style="stop-color:#C0392B;stop-opacity:1"/>
    </radialGradient>
    <linearGradient id="bluemask" x1="0%" y1="0%" x2="0%" y2="100%">
            <stop offset="0%" style="stop-color:#2C3E50;stop-opacity:0.8"/>
            <stop offset="60%" style="stop-color:#2C3E50;stop-opacity:0.3"/>
            <stop offset="100%" style="stop-color:#2C3E50;stop-opacity:0"/>
        </linearGradient>
  </defs>
  
  <!-- Background -->
  <rect width="400" height="400" fill="#fafaf8" rx="20"/>
  
  <!-- Shadow -->
  <ellipse cx="200" cy="340" rx="80" ry="15" fill="#00000015"/>
  
  <!-- Fruit -->
  <ellipse cx="200" cy="210" rx="100" ry="95" fill="url(#grad)" />
  <ellipse cx="200" cy="210" rx="100" ry="95" fill="url(#bluemask)" />
  <ellipse cx="170" cy="180" rx="30" ry="25" fill="white" opacity="0.2" />
  
  <!-- Stem -->
  <path d="M195 115 L195 100 Q195 85 200 80 Q205 85 205 100 L205 115" fill="#2E7D32"/>
              <path d="M180 120 Q190 105 200 115 Q210 105 220 120 Q210 125 200 118 Q190 125 180 120" fill="#388E3C"/>
  
  <!-- Label -->
  <text x="200" y="380" text-anchor="middle" font-family="Georgia, serif" font-size="16" fill="#555">Blue Pitts</text>
</svg>